# xmcd CD database file
#
# Track frame offsets:
#	150
#	19720
#	29184
#	41632
#	51688
#	66358
#	74267
#	92252
#	113828
#	127459
#	139022
#	160396
#	172329
#
# Disc length: 2470 seconds
#
# Revision: 3
# Processed by: cddbd v1.4PL0 Copyright (c) Steve Scherf et al.
# Submitted via: CDex 1.50beta9
#
DISCID=cc09a40d
DTITLE=Various Artist - Balicek cokolady III
DYEAR=1900
DGENRE=Country
TTITLE0=Eldorado
TTITLE1=Drahy muj
TTITLE2=Ja svetem tah, jen tak s celtou
TTITLE3=Jak mit rad
TTITLE4=Zlate strevicky
TTITLE5=Vlak v 05
TTITLE6=Ohne v udoli
TTITLE7=Cervena reka
TTITLE8=Na vanoce rano
TTITLE9=Sbohem lasko ja odplouvam
TTITLE10=Pampelisky
TTITLE11=Hribe
TTITLE12=Vcera nedele byla
EXTD=
EXTT0=
EXTT1=
EXTT2=
EXTT3=
EXTT4=
EXTT5=
EXTT6=
EXTT7=
EXTT8=
EXTT9=
EXTT10=
EXTT11=
EXTT12=
PLAYORDER=
